<svg xmlns="http://www.w3.org/2000/svg" viewBox="0 0 800 470" font-family="Manrope, system-ui, sans-serif">
  <rect width="800" height="470" fill="#f8f5f0"/>
  <rect width="800" height="56" fill="#ffffff"/>
  <circle cx="28" cy="28" r="6" fill="#e0a09a"/><circle cx="50" cy="28" r="6" fill="#e6cf9a"/><circle cx="72" cy="28" r="6" fill="#a9cdb0"/>
  <rect x="110" y="16" width="430" height="24" rx="12" fill="#f1ece3"/>
  <text x="128" y="33" font-size="13" fill="#6b665d" font-family="JetBrains Mono, monospace">project-keenkeeper-apps.netlify.app</text>
  <line x1="0" y1="56" x2="800" y2="56" stroke="#e4ded3"/>
  <text x="40" y="104" font-size="26" font-weight="600" fill="#1c1a17" font-family="Newsreader, serif">KeenKeeper Dashboard</text>
  <!-- stat tiles -->
  <g>
    <rect x="40" y="128" width="232" height="78" rx="14" fill="#ffffff" stroke="#e4ded3"/>
    <rect x="60" y="146" width="60" height="10" rx="5" fill="#cfc8ba"/><text x="60" y="190" font-size="26" font-weight="700" fill="#c0573a" font-family="Newsreader, serif">12.4k</text>
    <rect x="284" y="128" width="232" height="78" rx="14" fill="#ffffff" stroke="#e4ded3"/>
    <rect x="304" y="146" width="60" height="10" rx="5" fill="#cfc8ba"/><text x="304" y="190" font-size="26" font-weight="700" fill="#1c1a17" font-family="Newsreader, serif">87%</text>
    <rect x="528" y="128" width="232" height="78" rx="14" fill="#ffffff" stroke="#e4ded3"/>
    <rect x="548" y="146" width="60" height="10" rx="5" fill="#cfc8ba"/><text x="548" y="190" font-size="26" font-weight="700" fill="#1c1a17" font-family="Newsreader, serif">$48.2k</text>
  </g>
  <!-- bar chart -->
  <rect x="40" y="224" width="360" height="206" rx="14" fill="#ffffff" stroke="#e4ded3"/>
  <rect x="74" y="360" width="34" height="48" rx="5" fill="#e3d7cf"/>
  <rect x="124" y="330" width="34" height="78" rx="5" fill="#e3d7cf"/>
  <rect x="174" y="300" width="34" height="108" rx="5" fill="#c0573a"/>
  <rect x="224" y="340" width="34" height="68" rx="5" fill="#e3d7cf"/>
  <rect x="274" y="284" width="34" height="124" rx="5" fill="#c0573a"/>
  <rect x="324" y="318" width="34" height="90" rx="5" fill="#e3d7cf"/>
  <!-- line/area chart -->
  <rect x="416" y="224" width="344" height="206" rx="14" fill="#ffffff" stroke="#e4ded3"/>
  <path d="M440 380 L500 340 L560 356 L620 300 L680 320 L736 264 L736 408 L440 408 Z" fill="#c0573a" fill-opacity="0.12"/>
  <path d="M440 380 L500 340 L560 356 L620 300 L680 320 L736 264" fill="none" stroke="#c0573a" stroke-width="3" stroke-linecap="round" stroke-linejoin="round"/>
  <circle cx="500" cy="340" r="4" fill="#c0573a"/><circle cx="620" cy="300" r="4" fill="#c0573a"/><circle cx="736" cy="264" r="4" fill="#c0573a"/>
</svg>
