<svg xmlns="http://www.w3.org/2000/svg" viewBox="0 0 800 470" font-family="Manrope, system-ui, sans-serif">
  <rect width="800" height="470" fill="#f8f5f0"/>
  <!-- browser bar -->
  <rect width="800" height="56" fill="#ffffff"/>
  <circle cx="28" cy="28" r="6" fill="#e0a09a"/><circle cx="50" cy="28" r="6" fill="#e6cf9a"/><circle cx="72" cy="28" r="6" fill="#a9cdb0"/>
  <rect x="110" y="16" width="430" height="24" rx="12" fill="#f1ece3"/>
  <text x="128" y="33" font-size="13" fill="#6b665d" font-family="JetBrains Mono, monospace">studynook-apps-frontend.vercel.app</text>
  <line x1="0" y1="56" x2="800" y2="56" stroke="#e4ded3"/>
  <!-- page header -->
  <text x="40" y="108" font-size="30" font-weight="600" fill="#1c1a17" font-family="Newsreader, serif">StudyNook</text>
  <rect x="40" y="128" width="520" height="40" rx="20" fill="#ffffff" stroke="#e4ded3"/>
  <circle cx="66" cy="148" r="7" fill="none" stroke="#c0573a" stroke-width="2"/><line x1="71" y1="153" x2="77" y2="159" stroke="#c0573a" stroke-width="2"/>
  <text x="92" y="153" font-size="14" fill="#a39d92">Search study rooms by date &amp; time…</text>
  <rect x="600" y="128" width="160" height="40" rx="20" fill="#c0573a"/>
  <text x="680" y="153" font-size="14" font-weight="600" fill="#ffffff" text-anchor="middle">Find a room</text>
  <!-- room cards -->
  <g>
    <rect x="40" y="196" width="232" height="234" rx="16" fill="#ffffff" stroke="#e4ded3"/>
    <rect x="40" y="196" width="232" height="110" rx="16" fill="#e9e2d6"/>
    <rect x="40" y="280" width="232" height="26" fill="#e9e2d6"/>
    <rect x="60" y="324" width="150" height="12" rx="6" fill="#cfc8ba"/>
    <rect x="60" y="346" width="100" height="10" rx="5" fill="#e4ded3"/>
    <rect x="60" y="378" width="56" height="22" rx="11" fill="#f1ece3"/><rect x="124" y="378" width="56" height="22" rx="11" fill="#f1ece3"/>
    <rect x="196" y="378" width="56" height="22" rx="11" fill="#c0573a"/>
  </g>
  <g>
    <rect x="284" y="196" width="232" height="234" rx="16" fill="#ffffff" stroke="#e4ded3"/>
    <rect x="284" y="196" width="232" height="110" rx="16" fill="#e3d7cf"/>
    <rect x="284" y="280" width="232" height="26" fill="#e3d7cf"/>
    <rect x="304" y="324" width="150" height="12" rx="6" fill="#cfc8ba"/>
    <rect x="304" y="346" width="100" height="10" rx="5" fill="#e4ded3"/>
    <rect x="304" y="378" width="56" height="22" rx="11" fill="#f1ece3"/><rect x="368" y="378" width="56" height="22" rx="11" fill="#f1ece3"/>
    <rect x="440" y="378" width="56" height="22" rx="11" fill="#c0573a"/>
  </g>
  <g>
    <rect x="528" y="196" width="232" height="234" rx="16" fill="#ffffff" stroke="#e4ded3"/>
    <rect x="528" y="196" width="232" height="110" rx="16" fill="#ecd9d2"/>
    <rect x="528" y="280" width="232" height="26" fill="#ecd9d2"/>
    <rect x="548" y="324" width="150" height="12" rx="6" fill="#cfc8ba"/>
    <rect x="548" y="346" width="100" height="10" rx="5" fill="#e4ded3"/>
    <rect x="548" y="378" width="56" height="22" rx="11" fill="#f1ece3"/><rect x="612" y="378" width="56" height="22" rx="11" fill="#f1ece3"/>
    <rect x="684" y="378" width="56" height="22" rx="11" fill="#c0573a"/>
  </g>
</svg>
